<?xml version="1.0" encoding="UTF-8"?>
<svg id="Capa_1" data-name="Capa 1" xmlns="http://www.w3.org/2000/svg" viewBox="0 0 2644.51 510.39">
  <defs>
    <style>
      .cls-1 {
        fill: #fff;
      }
    </style>
  </defs>
  <path class="cls-1" d="M391.93,187c0-14.43-2.46-25.65-7.37-33.64-4.91-7.99-14.28-11.98-28.1-11.98h-221.18v281.08h-54.83V86.09h276.48c16.89,0,31.1,2.23,42.62,6.68,11.52,4.46,20.81,10.83,27.88,19.12,7.06,8.3,12.13,18.51,15.21,30.64,3.07,12.14,4.61,25.73,4.61,40.78v239.15h-55.3v-235.46Z"/>
  <path class="cls-1" d="M822.31,276.86h-256.66v145.61h-55.29V86.09h271.41c33.48,0,57.75,8.45,72.8,25.34,15.04,16.9,22.58,40.55,22.58,70.96v240.07h-54.83v-145.61ZM822.31,184.69c0-28.87-13.21-43.31-39.63-43.31h-217.03v80.18h256.66v-36.87Z"/>
  <path class="cls-1" d="M960.31,396.66c-14.9-17.2-22.34-41.01-22.34-71.42V86.09h55.29v237.77c0,28.87,13.52,43.31,40.55,43.31h215.65V86.09h55.75v336.37h-271.86c-33.8,0-58.14-8.6-73.04-25.8Z"/>
  <path class="cls-1" d="M1460.49,422.46c-30.11,0-53.15-7.6-69.12-22.81-15.98-15.21-23.96-39.86-23.96-73.95V86.09l268.64-.46c15.05,0,28.72,1.61,41.01,4.84,12.29,3.23,22.73,8.45,31.34,15.67,8.59,7.22,15.21,16.67,19.81,28.34,4.61,11.68,6.92,25.96,6.92,42.85v8.76c0,12.9-1.62,24.27-4.84,34.1-3.23,9.83-8.37,20.12-15.44,30.87,7.06,10.76,12.21,21.2,15.44,31.34,3.22,10.13,4.84,21.65,4.84,34.56v8.76c0,16.9-2.39,31.41-7.15,43.54-4.77,12.14-11.45,22.12-20.04,29.95-8.61,7.83-18.97,13.59-31.1,17.28-12.14,3.69-25.73,5.53-40.78,5.53l-175.56.46ZM1679.82,177.78c0-14.13-3.91-23.8-11.75-29.03-7.83-5.22-18.97-7.83-33.41-7.83l-211.96.46v80.18c35.32,0,70.65-.07,105.98-.23,35.32-.15,70.65-.23,105.98-.23,14.13,0,25.19-2.31,33.18-6.91,7.99-4.61,11.98-13.83,11.98-27.65v-8.75ZM1679.82,313.26c0-14.13-3.91-23.8-11.75-29.03-7.83-5.22-18.97-7.83-33.41-7.83l-211.96.46v48.84c0,13.82,3.99,24.19,11.98,31.1,7.99,6.91,19.51,10.37,34.56,10.37l165.42-.46c30.11,0,45.16-13.83,45.16-41.47v-11.98Z"/>
  <path class="cls-1" d="M2106.51,276.86h-256.66v145.61h-55.29V86.09h271.41c33.48,0,57.75,8.45,72.81,25.34,15.04,16.9,22.58,40.55,22.58,70.96v240.07h-54.84v-145.61ZM2106.51,184.69c0-28.87-13.21-43.31-39.62-43.31h-217.04v80.18h256.66v-36.87Z"/>
  <path class="cls-1" d="M2312.02,256.12c0,14.74,1.92,28.73,5.76,41.93,3.84,13.21,9.6,24.81,17.28,34.79,7.68,9.99,17.12,18.2,28.34,24.65,11.21,6.45,24.03,10.3,38.47,11.52v55.76c-23.65-.31-44.54-5.22-62.66-14.74-18.13-9.52-33.34-22.19-45.62-38.02-12.29-15.82-21.59-34.1-27.88-54.83-6.3-20.74-9.45-42.46-9.45-65.2v-110.59h-59.44v-55.29h367.24v55.29h-252.05v114.74Z"/>
</svg>